<svg xmlns="http://www.w3.org/2000/svg" width="16.94" height="18.823" viewBox="0 0 16.94 18.823"><defs><style>.a{fill:#50579b;}</style></defs><path class="a" d="M18.058,2.882H14.124a2.812,2.812,0,0,0-5.308,0H4.882A1.888,1.888,0,0,0,3,4.765V17.941a1.888,1.888,0,0,0,1.882,1.882H18.058a1.888,1.888,0,0,0,1.882-1.882V4.765A1.888,1.888,0,0,0,18.058,2.882Zm-6.588,0a.941.941,0,1,1-.941.941A.944.944,0,0,1,11.47,2.882Zm1.882,13.176H6.765V14.176h6.588Zm2.823-3.765H6.765V10.411h9.412Zm0-3.765H6.765V6.647h9.412Z" transform="translate(-3 -1)"/></svg>