<svg xmlns="http://www.w3.org/2000/svg" width="22.895" height="22.895" viewBox="0 0 22.895 22.895"><defs><style>.a{fill:none;}.b{fill:#50579b;}</style></defs><path class="a" d="M0,0H22.895V22.895H0Z"/><g transform="translate(62.905 75.283)"><path class="b" d="M16.522,4l1.815,3.63H15.614L13.8,4H11.984L13.8,7.63H11.076L9.261,4H7.446L9.261,7.63H6.538L4.723,4H3.815A1.813,1.813,0,0,0,2.009,5.815L2,16.706a1.821,1.821,0,0,0,1.815,1.815H18.337a1.821,1.821,0,0,0,1.815-1.815V4Z" transform="translate(-62.789 -74.541)"/><path class="a" d="M0,0H21.782V21.782H0Z" transform="translate(-62.345 -74.171)"/></g></svg>