<svg xmlns="http://www.w3.org/2000/svg" width="22.895" height="22.895" viewBox="0 0 22.895 22.895"><defs><style>.a{fill:none;}.b{fill:#50579b;}</style></defs><path class="a" d="M0,0H22.895V22.895H0Z"/><path class="b" d="M15.344,11.984a8.3,8.3,0,0,1-2.562-.406.709.709,0,0,0-.733.174l-1.139,1.43a11.018,11.018,0,0,1-5-4.956l1.415-1.2A.741.741,0,0,0,7.5,6.28a8.093,8.093,0,0,1-.406-2.562A.725.725,0,0,0,6.374,3H3.864C3.472,3,3,3.174,3,3.718A12.447,12.447,0,0,0,15.344,16.062a.761.761,0,0,0,.718-.856V12.7a.725.725,0,0,0-.718-.718Z" transform="translate(1.916 1.912)"/></svg>