<svg xmlns="http://www.w3.org/2000/svg" width="26.189" height="26.189" viewBox="0 0 26.189 26.189"><defs><style>.a{fill:none;}.b{fill:#50579b;}</style></defs><path class="a" d="M0,0H26.189V26.189H0Z"/><path class="b" d="M14.3,32H1.716A1.716,1.716,0,0,0,0,33.716V46.3a1.716,1.716,0,0,0,1.716,1.716H14.3A1.716,1.716,0,0,0,16.015,46.3V33.716A1.716,1.716,0,0,0,14.3,32Zm-.214,14.3H1.93a.214.214,0,0,1-.214-.214V33.93a.214.214,0,0,1,.214-.214H14.084a.214.214,0,0,1,.214.214V46.084a.214.214,0,0,1-.214.214Zm-1.93-10.867-4.862.005a.429.429,0,0,0-.429.429v.992a.429.429,0,0,0,.438.429l2.073-.077L3.557,43.028a.429.429,0,0,0,0,.607l.823.823a.429.429,0,0,0,.607,0L10.8,38.64l-.077,2.073a.429.429,0,0,0,.429.438h.992a.429.429,0,0,0,.429-.429l.005-4.862A.429.429,0,0,0,12.154,35.432Z" transform="translate(5.087 -26.626)"/></svg>