<svg xmlns="http://www.w3.org/2000/svg" width="28.945" height="20" viewBox="0 0 28.945 20"><defs><style>.a{fill:none;}</style></defs><g transform="translate(5.465)"><path class="a" d="M0,0H20V20H0Z"/><g transform="translate(14611.825 3574.245)"><path d="M8.272,7.186A.78.78,0,0,0,8.218,6.6L4.437.168A.3.3,0,0,0,4.188,0a.309.309,0,0,0-.259.168L.088,6.6a.78.78,0,0,0-.054.586q.1.318.313.318h2.99v20.9a.7.7,0,0,0,.1.386.289.289,0,0,0,.249.15h.935a.289.289,0,0,0,.249-.15.7.7,0,0,0,.1-.386V7.5h3Q8.185,7.5,8.272,7.186Z" transform="translate(-14617.29 -3558.731) rotate(-90)"/></g></g></svg>