<svg xmlns="http://www.w3.org/2000/svg" width="19.235" height="19.235" viewBox="0 0 19.235 19.235"><defs><style>.a,.b{fill:#50579b;}.a{stroke:#50579b;stroke-width:0.4px;}</style></defs><g transform="translate(0.2 0.2)"><path class="a" d="M266.271,7.257h1.218a0,0,0,0,0,0,0,7.629,7.629,0,0,1,.621-1.5,0,0,0,0,0,0,0l-.862-.862a.857.857,0,0,1,0-1.213l1.842-1.842a.857.857,0,0,1,1.213,0l.862.862a0,0,0,0,0,0,0,7.618,7.618,0,0,1,1.5-.621,0,0,0,0,0,0,0V.857A.858.858,0,0,1,273.529,0h.68a.276.276,0,0,1,0,.552h-.68a.306.306,0,0,0-.306.306V2.075a.558.558,0,0,1-.4.533,7.061,7.061,0,0,0-1.387.576.559.559,0,0,1-.659-.095l-.862-.862a.306.306,0,0,0-.432,0l-1.842,1.842a.305.305,0,0,0,0,.432l.862.862a.558.558,0,0,1,.095.659,7.071,7.071,0,0,0-.576,1.387.559.559,0,0,1-.533.4h-1.218a.306.306,0,0,0-.306.306v.659a.276.276,0,0,1-.552,0V8.115a.858.858,0,0,1,.857-.857Zm0,0" transform="translate(-265.414 0)"/><path class="a" d="M.276,9.786a.276.276,0,0,1,.276.276v.659a.306.306,0,0,0,.306.306H2.076a.559.559,0,0,1,.533.4,7.069,7.069,0,0,0,.576,1.387.559.559,0,0,1-.094.659l-.862.862a.305.305,0,0,0,0,.432L4.07,16.608a.306.306,0,0,0,.432,0l.862-.863a.559.559,0,0,1,.659-.095,7.063,7.063,0,0,0,1.387.576.558.558,0,0,1,.4.533v1.218a.306.306,0,0,0,.306.306H10.72a.306.306,0,0,0,.306-.306V16.76a.558.558,0,0,1,.4-.533,7.062,7.062,0,0,0,1.387-.576.558.558,0,0,1,.659.095l.862.863a.306.306,0,0,0,.432,0l1.842-1.842a.305.305,0,0,0,0-.432l-.862-.862a.559.559,0,0,1-.094-.659,7.067,7.067,0,0,0,.576-1.387.559.559,0,0,1,.533-.4h1.218a.306.306,0,0,0,.306-.306V8.115a.306.306,0,0,0-.306-.306H16.76a.559.559,0,0,1-.533-.4,7.066,7.066,0,0,0-.576-1.387.559.559,0,0,1,.095-.659l.862-.862a.305.305,0,0,0,0-.432L14.766,2.227a.305.305,0,0,0-.432,0l-.862.862a.558.558,0,0,1-.659.095,7.069,7.069,0,0,0-1.387-.576.558.558,0,0,1-.4-.533V.857A.306.306,0,0,0,10.72.552h-.637a.276.276,0,0,1,0-.552h.637a.858.858,0,0,1,.857.857V2.076a0,0,0,0,0,0,0,7.624,7.624,0,0,1,1.5.621,0,0,0,0,0,0,0l.862-.862a.857.857,0,0,1,1.213,0L17,3.679a.857.857,0,0,1,0,1.213l-.862.862a0,0,0,0,0,0,0,7.621,7.621,0,0,1,.621,1.5,0,0,0,0,0,0,0h1.218a.858.858,0,0,1,.857.857V10.72a.858.858,0,0,1-.857.857H16.76a0,0,0,0,0,0,0,7.612,7.612,0,0,1-.621,1.5,0,0,0,0,0,0,0l.862.862a.857.857,0,0,1,0,1.213L15.156,17a.858.858,0,0,1-1.213,0l-.862-.863h0a7.624,7.624,0,0,1-1.5.621,0,0,0,0,0,0,0v1.218a.858.858,0,0,1-.857.857H8.115a.858.858,0,0,1-.857-.857V16.76a0,0,0,0,0,0,0,7.623,7.623,0,0,1-1.5-.621,0,0,0,0,0,0,0L4.892,17a.859.859,0,0,1-1.213,0L1.837,15.156a.857.857,0,0,1,0-1.213l.862-.862a0,0,0,0,0,0,0,7.624,7.624,0,0,1-.621-1.5,0,0,0,0,0,0,0H.857A.858.858,0,0,1,0,10.72v-.659a.276.276,0,0,1,.276-.276Zm0,0" transform="translate(0 0)"/><g transform="translate(6.088 4.524)"><path class="b" d="M88.14,181.772v.863h6.882v-.863A2.925,2.925,0,0,0,92.1,178.85H91.063A2.925,2.925,0,0,0,88.14,181.772Z" transform="translate(-88.14 -174.724)"/><path class="b" d="M108.142,134.85h0a1.9,1.9,0,1,0-.4,0Z" transform="translate(-104.503 -131.069)"/></g></g></svg>